<?xml version="1.0" encoding="UTF-8"?>
<svg id="Layer_1" data-name="Layer 1" xmlns="http://www.w3.org/2000/svg" width="395.87" height="341.93" viewBox="0 0 395.87 341.93">
  <defs>
    <style>
      .cls-1 {
        fill: #73c271;
      }

      .cls-1, .cls-2 {
        stroke-width: 0px;
      }

      .cls-2 {
        fill: #016060;
      }
    </style>
  </defs>
  <g>
    <path class="cls-2" d="m82.05,240.35c-1.56-.51-2.94-1.32-4.13-2.45-1.19-1.12-2.17-2.61-2.94-4.46-.77-1.85-1.26-4.11-1.47-6.79h24.85c.11-2.38-.2-4.74-.91-7.07-.71-2.33-1.81-4.41-3.3-6.23-1.48-1.83-3.33-3.31-5.56-4.45-2.22-1.14-4.82-1.71-7.78-1.71s-5.63.56-8.14,1.67-4.68,2.66-6.51,4.64c-1.83,1.99-3.27,4.35-4.33,7.11-1.06,2.75-1.59,5.8-1.59,9.13,0,3.02.46,5.81,1.39,8.38s2.24,4.79,3.93,6.67c1.69,1.88,3.77,3.35,6.23,4.41,2.46,1.06,5.23,1.59,8.3,1.59,4.82,0,8.75-1.2,11.79-3.61s5.17-5.57,6.39-9.49l-.95-.64c-1.32,1.27-2.78,2.26-4.37,2.98-1.59.72-3.55,1.07-5.88,1.07-1.8,0-3.48-.25-5.04-.76h.02Zm2.42-27.65c.95,1.49,1.43,3.91,1.43,7.26v3.14l-12.47.31c0-1.72.17-3.36.52-4.9.34-1.54.82-2.92,1.43-4.12s1.36-2.16,2.26-2.86c.9-.71,1.91-1.06,3.02-1.06,1.59,0,2.86.75,3.81,2.24h0Zm30.69-10.97c.93-.37,1.73-.89,2.42-1.55.69-.66,1.23-1.44,1.63-2.34.4-.9.6-1.85.6-2.86s-.2-1.95-.6-2.82-.94-1.64-1.63-2.3c-.69-.66-1.5-1.19-2.42-1.59-.93-.4-1.89-.6-2.9-.6-1.06,0-2.02.2-2.9.6-.87.4-1.64.93-2.3,1.59s-1.18,1.43-1.55,2.3c-.37.87-.56,1.81-.56,2.82s.18,1.96.56,2.86c.37.9.89,1.68,1.55,2.34s1.43,1.18,2.3,1.55c.87.37,1.84.56,2.9.56,1,0,1.97-.18,2.9-.56h0Zm-10.76,47.8h17.55v-.16c-.37-1.11-.7-2.2-.99-3.26s-.53-2.2-.71-3.41c-.19-1.22-.32-2.54-.4-3.97-.08-1.43-.12-3.07-.12-4.92v-27l-17.87,4.84v.32c1.8,1.91,3.07,3.94,3.81,6.11s1.11,4.92,1.11,8.26v7.38c0,1.91-.07,3.59-.2,5.04-.13,1.46-.31,2.78-.52,3.97s-.46,2.32-.75,3.37c-.29,1.06-.6,2.14-.91,3.26v.16h0Zm50.3-14.45c2.2-.74,4.08-1.75,5.64-3.02s2.78-2.77,3.65-4.49,1.31-3.56,1.31-5.52c0-2.06-.5-3.9-1.51-5.52-1.01-1.61-2.44-3.03-4.29-4.25l11.35,1.11h.32v-10.08l-.16-.08-13.42,6.67c-1.38-.85-2.93-1.51-4.64-1.99-1.72-.48-3.59-.71-5.6-.71-2.65,0-5.07.37-7.27,1.11s-4.08,1.76-5.64,3.06-2.78,2.83-3.65,4.61c-.87,1.77-1.31,3.69-1.31,5.76,0,2.49.61,4.74,1.83,6.75s2.94,3.65,5.16,4.92c-.95.42-1.91.94-2.86,1.55s-1.81,1.35-2.58,2.22-1.39,1.89-1.87,3.06c-.48,1.16-.71,2.49-.71,3.97,0,3.49,1.48,6.09,4.45,7.78-1.69.74-3.14,1.73-4.33,2.98-1.19,1.24-1.79,2.74-1.79,4.49,0,2.91,1.76,5.12,5.28,6.63s8.32,2.26,14.41,2.26c7.83,0,13.88-1.27,18.14-3.81s6.42-6.01,6.47-10.4c0-1.91-.38-3.57-1.15-5-.77-1.43-1.89-2.62-3.37-3.57-1.48-.95-3.26-1.69-5.32-2.22-2.06-.53-4.39-.87-6.99-1.03l-9.37-.4c-2.91-.16-4.91-.58-5.99-1.27-1.09-.69-1.63-1.59-1.63-2.7,0-1.43.66-2.49,1.99-3.18,2.38.95,5.11,1.43,8.18,1.43,2.65,0,5.07-.37,7.27-1.11h0Zm-11.47-5.08c-.9-1.96-1.35-4.71-1.35-8.26s.42-6.32,1.27-8.3,2.25-2.98,4.21-2.98,3.39.99,4.29,2.98c.9,1.98,1.35,4.75,1.35,8.3s-.45,6.3-1.35,8.26c-.9,1.96-2.3,2.94-4.21,2.94s-3.31-.98-4.21-2.94h0Zm-8.26,25.09c.26-.69.56-1.27.87-1.75,1.69.53,3.84.87,6.43,1.03l8.42.4c3.97.21,6.87.65,8.69,1.31,1.83.66,2.74,1.76,2.74,3.3,0,1.8-1.1,3.15-3.3,4.05s-5.36,1.35-9.49,1.35c-2.06,0-4-.13-5.8-.4s-3.36-.69-4.68-1.27c-1.32-.58-2.37-1.34-3.14-2.26-.77-.93-1.15-2.08-1.15-3.45,0-.85.13-1.62.4-2.3h.01Zm40.89-5.56h17.63v-.16c-.37-1.11-.7-2.2-.99-3.26-.29-1.06-.53-2.2-.71-3.41-.19-1.22-.33-2.54-.44-3.97-.11-1.43-.16-3.07-.16-4.92v-14.61c.9-1.27,2.05-2.32,3.45-3.14,1.4-.82,2.98-1.23,4.72-1.23,2.06,0,3.57.57,4.53,1.71.95,1.14,1.43,2.55,1.43,4.25v13.1c0,1.85-.05,3.49-.16,4.92s-.25,2.74-.44,3.93c-.19,1.19-.44,2.32-.75,3.37-.32,1.06-.66,2.14-1.03,3.26v.16h17.63v-.16c-.42-1.11-.77-2.2-1.03-3.26-.27-1.06-.5-2.18-.71-3.37s-.36-2.51-.44-3.97-.12-3.14-.12-5.04v-14.77c0-3.65-1.13-6.52-3.37-8.61-2.25-2.09-5.28-3.14-9.09-3.14-1.85,0-3.55.25-5.08.75-1.54.5-2.91,1.15-4.13,1.95-1.22.79-2.28,1.67-3.18,2.62s-1.64,1.88-2.22,2.78v-29.78l-17.79,4.84v.16c1.75,1.91,2.99,3.94,3.73,6.11.74,2.17,1.11,4.92,1.11,8.26v28.82c0,1.91-.05,3.6-.16,5.08s-.27,2.82-.48,4.01c-.21,1.19-.46,2.3-.75,3.33s-.62,2.1-.99,3.22v.16h0Zm52.8.24h.79l4.92-3.33c1.43,1.16,3.31,2.18,5.64,3.06,2.33.87,5.21,1.31,8.65,1.31,3.81,0,7.16-.61,10.04-1.83s5.29-2.87,7.23-4.96c1.93-2.09,3.37-4.55,4.33-7.38.95-2.83,1.43-5.86,1.43-9.09,0-3.02-.38-5.77-1.15-8.26-.77-2.49-1.85-4.62-3.26-6.39-1.4-1.77-3.11-3.16-5.12-4.17-2.01-1-4.26-1.51-6.75-1.51-1.59,0-3.07.19-4.45.56-1.38.37-2.65.87-3.81,1.51s-2.18,1.35-3.06,2.14c-.87.79-1.63,1.59-2.26,2.38h-.24v-28.27l-17.79,4.84v.16c1.75,1.91,2.99,3.94,3.73,6.11.74,2.17,1.11,4.92,1.11,8.26v44.86h.02Zm17.87-2.85c-.95-.42-1.79-1.08-2.5-1.97s-1.3-2.08-1.75-3.55-.67-3.26-.67-5.36v-19c.74-.58,1.68-1.09,2.82-1.54,1.14-.45,2.45-.67,3.93-.67,3.18,0,5.58,1.22,7.23,3.67,1.64,2.44,2.46,6.53,2.46,12.26,0,2.47-.17,4.74-.52,6.82-.34,2.08-.87,3.85-1.59,5.32-.71,1.47-1.6,2.62-2.66,3.43-1.06.82-2.33,1.22-3.81,1.22-1.01,0-1.99-.21-2.94-.63h0Zm61.01,2.34c2.78-1.03,5.24-2.5,7.38-4.41s3.86-4.19,5.16-6.87c1.3-2.67,1.95-5.65,1.95-8.93s-.65-6.34-1.95-9.01c-1.3-2.67-3.02-4.96-5.16-6.87-2.14-1.91-4.61-3.37-7.38-4.41-2.78-1.03-5.63-1.55-8.54-1.55s-5.76.53-8.54,1.59-5.24,2.54-7.38,4.45-3.86,4.2-5.16,6.87c-1.3,2.67-1.95,5.65-1.95,8.93s.65,6.26,1.95,8.93c1.3,2.67,3.02,4.96,5.16,6.87,2.14,1.91,4.59,3.37,7.34,4.41,2.75,1.03,5.61,1.55,8.58,1.55s5.76-.52,8.54-1.55h0Zm-12.46-3.05c-1.14-.89-2.09-2.15-2.86-3.78s-1.35-3.57-1.75-5.82c-.4-2.26-.6-4.78-.6-7.56s.18-5.24.56-7.52c.37-2.28.94-4.25,1.71-5.9s1.72-2.93,2.86-3.82c1.14-.89,2.47-1.34,4.01-1.34s2.87.45,4.01,1.34,2.09,2.17,2.86,3.82c.77,1.65,1.34,3.62,1.71,5.9s.56,4.79.56,7.52-.19,5.3-.56,7.56-.93,4.2-1.67,5.82c-.74,1.63-1.68,2.89-2.82,3.78s-2.48,1.34-4.01,1.34-2.87-.45-4.01-1.34h0Zm32.59,3.32h17.55v-.16c-.37-1.11-.7-2.2-.99-3.26-.29-1.06-.53-2.2-.71-3.41-.19-1.22-.32-2.54-.4-3.97-.08-1.43-.12-3.07-.12-4.92v-12.55c.58-.74,1.22-1.34,1.91-1.79s1.38-.67,2.06-.67c1.11,0,2.58.34,4.41,1.03,1.83.69,3.51,1.56,5.04,2.62l.64-.08,2.14-15.17c-2.06-.37-3.9-.36-5.52.04s-3.08,1.09-4.41,2.06c-1.32.98-2.53,2.17-3.61,3.57-1.09,1.4-2.1,2.87-3.06,4.41v-10.48l-17.47,4.84v.16c1.8,1.91,3.07,3.93,3.81,6.07.74,2.14,1.11,4.91,1.11,8.3v7.54c0,1.91-.05,3.6-.16,5.08-.11,1.48-.27,2.82-.48,4.01-.21,1.19-.46,2.3-.75,3.33s-.62,2.1-.99,3.22v.16h0v.02Zm64.24-40.97c-1.38-.37-2.99-.69-4.84-.95s-3.73-.4-5.64-.4c-2.38,0-4.64.25-6.79.75-2.14.5-4.01,1.28-5.6,2.34s-2.85,2.42-3.77,4.09c-.93,1.67-1.39,3.67-1.39,5.99s.38,4.1,1.15,5.64,1.75,2.85,2.94,3.93c1.19,1.09,2.54,2.01,4.05,2.78,1.51.77,3.03,1.5,4.57,2.18,1.27.58,2.49,1.11,3.65,1.61s2.2,1.05,3.1,1.65c.9.6,1.61,1.28,2.14,2.04.53.76.79,1.66.79,2.7,0,1.26-.42,2.34-1.27,3.25-.85.92-2.38,1.37-4.61,1.37-3.02,0-5.78-1-8.3-3.01-2.51-2.01-5.1-4.87-7.74-8.58l-1.11.32,1.19,11.91c1.85.74,4,1.36,6.43,1.87,2.43.5,4.92.75,7.46.75,2.38,0,4.64-.25,6.79-.75,2.14-.5,4.01-1.3,5.6-2.38s2.84-2.49,3.77-4.21,1.39-3.77,1.39-6.15c0-2.12-.33-3.94-.99-5.48-.66-1.53-1.55-2.86-2.66-3.97-1.11-1.11-2.38-2.05-3.81-2.82s-2.89-1.47-4.37-2.1c-1.43-.57-2.78-1.12-4.05-1.65-1.27-.52-2.4-1.07-3.37-1.65-.98-.57-1.76-1.24-2.34-2s-.87-1.69-.87-2.78c0-1.41.49-2.49,1.47-3.25s2.32-1.14,4.01-1.14c1.11,0,2.17.17,3.18.51,1,.34,2.02.87,3.06,1.6,1.03.73,2.09,1.65,3.18,2.77,1.08,1.12,2.29,2.46,3.61,4.02l1.11-.32-1.11-10.48h-.01Z"/>
    <path class="cls-2" d="m51.64,320.01c-.56-1.62-1.43-3.08-2.62-4.38-1.19-1.3-2.74-2.41-4.64-3.34-1.91-.93-4.18-1.63-6.83-2.11,2.38-.63,4.35-1.47,5.92-2.49,1.56-1.03,2.81-2.18,3.73-3.45.93-1.27,1.59-2.63,1.99-4.08.4-1.45.6-2.92.6-4.4,0-1.85-.33-3.58-.99-5.19-.66-1.61-1.77-3.02-3.33-4.24-1.56-1.21-3.65-2.16-6.27-2.85s-5.89-1.03-9.81-1.03h-7.03c-1.77,0-3.68.01-5.72.04-2.04.03-3.98.04-5.84.04H2.61v.16c.64,1.54,1.19,2.94,1.67,4.21s.86,2.57,1.15,3.89.5,2.75.64,4.29c.13,1.54.2,3.36.2,5.48v22.07c0,2.12-.07,3.94-.2,5.48-.13,1.54-.34,2.97-.64,4.29-.29,1.32-.67,2.62-1.15,3.89-.48,1.27-1.03,2.67-1.67,4.21v.16h27.71c3.92,0,7.28-.37,10.08-1.11,2.81-.74,5.09-1.79,6.87-3.14,1.77-1.35,3.08-2.98,3.93-4.89.85-1.91,1.27-4.03,1.27-6.37,0-1.8-.28-3.51-.83-5.13h0Zm-31.09-11.27v-22.71c.74-.11,1.51-.19,2.3-.24.79-.05,1.64-.08,2.54-.08,2.01,0,3.69.29,5.04.88,1.35.58,2.45,1.38,3.3,2.39s1.44,2.19,1.79,3.55c.34,1.35.52,2.78.52,4.26s-.17,2.86-.52,4.26c-.34,1.41-.93,2.68-1.75,3.82s-1.88,2.07-3.18,2.79c-1.3.72-2.9,1.08-4.8,1.08h-5.24Zm2.43,28.55c-.87-.08-1.68-.17-2.42-.28v-25.01h5.56c2.17,0,3.98.33,5.44,1,1.46.66,2.63,1.57,3.53,2.71.9,1.14,1.53,2.5,1.91,4.06.37,1.57.56,3.23.56,4.98,0,1.86-.23,3.56-.67,5.1-.45,1.54-1.16,2.87-2.14,3.98-.98,1.12-2.22,1.99-3.73,2.63-1.51.64-3.3.96-5.36.96-.9,0-1.79-.04-2.66-.12h-.02Zm51.17,2.54c2.17-1.4,3.86-3,5.08-4.8.42,1.91,1.39,3.52,2.9,4.84s3.64,1.98,6.39,1.98c1.91,0,3.53-.32,4.88-.95,1.35-.64,2.49-1.4,3.41-2.3.93-.9,1.67-1.87,2.22-2.9.56-1.03.99-1.92,1.31-2.66l-.95-.79c-1.16,1.11-2.51,1.67-4.05,1.67-1.38,0-2.32-.4-2.82-1.19s-.75-1.83-.75-3.1v-19.22c0-3.6-1.06-6.51-3.18-8.73s-5.45-3.33-10-3.33c-2.22,0-4.33.28-6.31.83-1.99.56-3.81,1.28-5.48,2.18-1.67.9-3.18,1.95-4.53,3.14s-2.53,2.42-3.53,3.69l.95,1.11c3.7-1.59,7.36-2.38,10.96-2.38,3.02,0,5.13.58,6.35,1.75,1.22,1.16,1.83,3.02,1.83,5.56v2.38c-2.44.53-4.94,1.22-7.5,2.06-2.57.85-4.91,1.92-7.03,3.22-2.12,1.3-3.85,2.85-5.2,4.64-1.35,1.8-2.02,3.92-2.02,6.35,0,2.91.93,5.15,2.78,6.71s4.15,2.34,6.91,2.34,5.21-.7,7.38-2.1h0Zm-3.02-16.24c1.8-1.54,4.37-2.79,7.7-3.73v12.72c-.58.42-1.27.77-2.06,1.06s-1.69.43-2.7.43c-1.75,0-3.12-.48-4.13-1.45-1.01-.97-1.51-2.21-1.51-3.73,0-1.99.9-3.76,2.7-5.3h0Z"/>
    <path class="cls-2" d="m103.85,340.66h17.63v-.16c-.37-1.11-.7-2.2-.99-3.26s-.53-2.2-.71-3.41c-.19-1.22-.32-2.54-.4-3.97s-.12-3.07-.12-4.92v-14.77c.9-1.22,2.05-2.22,3.45-3.02,1.4-.79,2.95-1.19,4.64-1.19,2.12,0,3.64.57,4.57,1.71.93,1.14,1.39,2.55,1.39,4.25v13.1c0,1.85-.04,3.49-.12,4.92-.08,1.43-.23,2.74-.44,3.93s-.46,2.32-.75,3.37c-.29,1.06-.62,2.14-.99,3.26v.16h17.55v-.16c-.42-1.11-.77-2.2-1.03-3.26-.27-1.06-.5-2.18-.71-3.37s-.36-2.51-.44-3.97-.12-3.14-.12-5.04v-14.77c0-3.65-1.13-6.52-3.37-8.61-2.25-2.09-5.28-3.14-9.09-3.14-1.85,0-3.55.25-5.08.75-1.54.5-2.91,1.15-4.13,1.95-1.22.79-2.28,1.67-3.18,2.62-.9.95-1.62,1.88-2.14,2.78l-.4-.08v-8.42l-17.47,4.84v.16c1.8,1.91,3.07,3.93,3.81,6.07s1.11,4.91,1.11,8.3v7.54c0,1.91-.05,3.6-.16,5.08-.11,1.48-.27,2.82-.48,4.01-.21,1.19-.48,2.3-.79,3.33-.32,1.03-.66,2.1-1.03,3.22v.16h0Zm51.37,0h18.34v-.16c-.48-.9-.9-1.81-1.27-2.74-.37-.93-.69-1.92-.95-2.98-.27-1.06-.46-2.26-.6-3.61-.13-1.35-.2-2.9-.2-4.64v-49.86l-17.79,4.84v.24c1.75,1.85,2.99,3.86,3.73,6.03.74,2.17,1.11,4.92,1.11,8.26v30.41c0,1.85-.07,3.45-.2,4.8-.13,1.35-.31,2.55-.52,3.61s-.46,2.04-.75,2.94-.6,1.8-.91,2.7v.16h.01Zm45.57,0v-.16c-1.59-1.06-2.98-2.34-4.17-3.85s-2.42-3.37-3.69-5.6l-10.32-18.1,4.13-3.81c1.85-1.64,3.78-3.28,5.8-4.92,2.01-1.64,4.31-3.1,6.91-4.37v-.24h-16.28v.24c.95,1.38,1.38,3.04,1.27,5s-1.11,3.79-3.02,5.48l-10,8.89,12.15,21.44h17.23,0Z"/>
    <path class="cls-2" d="m47.55,249.77l4.53-.32v-39.62c0-2.06.13-3.89.4-5.48.26-1.59.66-3.07,1.19-4.45.53-1.38,1.2-2.71,2.02-4.01.82-1.3,1.81-2.74,2.98-4.33v-.16h-18.66v.16c1.22,1.59,2.25,3.03,3.1,4.33s1.53,2.63,2.06,4.01c.53,1.38.93,2.86,1.19,4.45s.4,3.47.4,5.64l.16,16.16-27.95-34.74H.15v.16c1.06,1.16,1.99,2.24,2.78,3.22s1.46,1.99,1.99,3.02c.53,1.03.94,2.13,1.23,3.3.29,1.16.49,2.51.6,4.05v25.88c0,2.17-.12,4.05-.36,5.64-.24,1.59-.64,3.06-1.19,4.41-.56,1.35-1.26,2.67-2.1,3.97-.85,1.3-1.88,2.74-3.1,4.33v.16h18.98v-.16c-1.22-1.59-2.25-3.03-3.1-4.33s-1.56-2.63-2.14-4.01c-.58-1.38-1.01-2.86-1.27-4.45-.27-1.59-.4-3.41-.4-5.48l-.32-25.54,35.81,44.2h0Z"/>
  </g>
  <path class="cls-1" d="m153.32,0l-30.62,24.74L91.03.04,3.4,70.11v84.63h45.51v-66.17l84.73,66.18h10.88v-75.61h-9.06v65.38L51.42,79.13h-11.68v66.63H12.37v-71.34L91.1,11.48l80.77,62.98v80.25h71.28v-84.66L153.32,0Zm-23.35,30.41l23.45-18.95,80.75,62.96v71.31h-53.33v-75.65s-50.87-39.67-50.87-39.67Z"/>
  <path class="cls-1" d="m263.68,149.62c0,3.54-2.78,6.31-6.39,6.31s-6.43-2.78-6.43-6.31,2.85-6.24,6.43-6.24,6.39,2.78,6.39,6.24Zm-11.22,0c0,2.78,2.05,4.98,4.87,4.98s4.75-2.21,4.75-4.94-2.02-5.02-4.79-5.02-4.83,2.24-4.83,4.98h0Zm3.84,3.27h-1.45v-6.24c.57-.11,1.37-.19,2.4-.19,1.18,0,1.71.19,2.17.46.34.27.61.76.61,1.37,0,.68-.53,1.22-1.29,1.45v.08c.61.23.95.68,1.14,1.52.19.95.3,1.33.46,1.56h-1.56c-.19-.23-.3-.8-.49-1.52-.11-.68-.49-.99-1.29-.99h-.68v2.51h-.02Zm.04-3.53h.68c.8,0,1.45-.27,1.45-.91,0-.57-.42-.95-1.33-.95-.38,0-.65.04-.8.08v1.79h0Z"/>
</svg>